<?xml version="1.0" encoding="UTF-8" standalone="no"?>
<!-- Created with Inkscape (http://www.inkscape.org/) -->

<svg
   width="46.351803mm"
   height="44.891434mm"
   viewBox="0 0 46.351803 44.891434"
   version="1.1"
   id="svg1"
   inkscape:version="1.3.1 (9b9bdc1480, 2023-11-25, custom)"
   sodipodi:docname="logo_final.svg"
   xmlns:inkscape="http://www.inkscape.org/namespaces/inkscape"
   xmlns:sodipodi="http://sodipodi.sourceforge.net/DTD/sodipodi-0.dtd"
   xmlns="http://www.w3.org/2000/svg"
   xmlns:svg="http://www.w3.org/2000/svg">
  <sodipodi:namedview
     id="namedview1"
     pagecolor="#ffffff"
     bordercolor="#999999"
     borderopacity="1"
     inkscape:showpageshadow="0"
     inkscape:pageopacity="0"
     inkscape:pagecheckerboard="0"
     inkscape:deskcolor="#d1d1d1"
     inkscape:document-units="mm"
     inkscape:zoom="2.1014404"
     inkscape:cx="85.893466"
     inkscape:cy="69.952019"
     inkscape:window-width="1850"
     inkscape:window-height="1016"
     inkscape:window-x="0"
     inkscape:window-y="0"
     inkscape:window-maximized="1"
     inkscape:current-layer="layer1" />
  <defs
     id="defs1" />
  <g
     inkscape:label="Layer 1"
     inkscape:groupmode="layer"
     id="layer1"
     transform="translate(-66.129608,-83.969964)">
    <path
       id="path0"
       style="fill:#0a6883;fill-opacity:1;stroke-width:0.264999;stop-color:#000000"
       d="m 89.164067,83.972652 c -0.535241,-0.0083 -1.057888,0.0025 -1.560629,0.03411 -4.938423,0.310351 -10.151962,2.561551 -8.823234,3.809586 0.226483,0.212989 0.073,0.227923 2.261361,-0.225309 3.430572,-0.71093 8.495605,-0.460147 8.495605,0.420646 0,0.287866 -0.19752,0.356166 -0.666626,0.22996 -5.777147,-1.553359 -18.473749,3.282041 -18.685681,7.116362 -0.06853,1.235864 0.34181,1.403858 1.886707,0.772562 3.723726,-1.521609 6.82873,-2.416118 10.954887,-3.155363 4.525673,-0.810679 10.956437,-0.544283 10.956437,0.45372 0,0.288655 -0.47129,0.338198 -1.551843,0.16278 -5.208033,-0.845074 -13.981573,0.82237 -19.947103,3.790983 -3.54699,1.765025 -5.174651,3.393201 -5.239474,5.239991 -0.06297,1.79992 0.720525,2.17118 2.886129,1.36684 3.196946,-1.18718 4.150732,-1.52737 5.790344,-2.06448 14.241922,-4.664295 21.90933,-4.42705 20.009632,0.61961 -0.734748,1.95231 -2.424359,3.15271 -5.932455,4.21369 -3.763678,1.1385 -5.621585,2.44648 -5.94279,4.18373 -0.38417,2.07878 2.37369,2.55069 8.220687,1.40663 2.174865,-0.42545 6.328637,-1.49927 7.780919,-2.01177 0.30559,-0.10768 1.3955,-0.4812 2.42156,-0.82992 1.88859,-0.64161 4.08201,-1.45846 5.67666,-2.11357 1.77821,-0.73046 2.78923,-0.83681 3.69331,-0.3886 0.68183,0.33787 0.66351,0.37622 0.60927,-1.27796 -0.25479,-7.7586 -4.51645,-14.668638 -11.41223,-18.504811 -0.45641,-0.254 -1.068552,-0.602146 -1.360122,-0.773596 -2.41464,-1.420311 -6.774653,-2.417897 -10.521321,-2.475818 z m 2.781742,15.737541 c -0.66164,-0.01051 -1.436014,0.02388 -2.329574,0.101802 -3.900202,0.340255 -9.785125,1.951555 -16.712675,4.575435 -4.63574,1.75604 -4.993573,1.81963 -6.081799,1.08727 -0.647695,-0.43604 -0.78556,-0.31771 -0.638721,0.5488 0.04577,0.26908 0.102531,0.95885 0.126608,1.53273 0.307705,7.3432 4.946363,14.51344 11.85354,18.32291 3.214139,1.77271 7.940483,2.98622 11.617378,2.98225 3.630597,-0.004 7.509655,-0.98591 9.658326,-2.44482 1.624018,-1.10278 1.235418,-1.92788 -0.698149,-1.48259 -3.959999,0.91176 -9.283154,0.79088 -9.283154,-0.21136 0,-0.24394 0.211584,-0.26486 1.227315,-0.12092 7.138423,1.01203 18.834026,-3.91619 18.049546,-7.60522 -0.19262,-0.90673 -0.61023,-1.01157 -1.87017,-0.47129 -5.55149,2.37987 -9.701538,3.3645 -15.223362,3.61321 -3.496983,0.15742 -6.451393,-0.1938 -6.535002,-0.77721 -0.03598,-0.25294 0.191059,-0.28816 0.991154,-0.15296 8.042234,1.3589 23.08761,-3.26023 25.3199,-7.77317 0.62309,-1.26021 0.48335,-2.62826 -0.30696,-3.00344 -0.5797,-0.27517 -0.98237,-0.17935 -4.54287,1.07901 -3.8362,1.35599 -5.32046,1.8321 -8.336443,2.67374 -7.682142,2.14439 -12.859203,2.53923 -14.588774,1.11259 -0.862007,-0.71093 -1.030712,-2.14916 -0.401009,-3.41995 0.621502,-1.25434 1.638847,-2.1379 3.461287,-3.00653 0.930535,-0.44344 1.262184,-0.55986 3.181202,-1.11311 3.360982,-0.96864 5.451979,-2.87127 5.160408,-4.69584 -0.141287,-0.88324 -1.113079,-1.319799 -3.098002,-1.351337 z" />
    <path
       style="fill:#08946d;fill-opacity:1;stroke-width:0.089195"
       d="m 85.482279,112.71954 c -1.046718,-0.28373 -1.493692,-0.80639 -1.395878,-1.63226 0.108561,-0.91664 0.748609,-1.77694 1.884111,-2.53248 0.949137,-0.63153 1.928839,-1.05447 4.123478,-1.78012 3.638333,-1.20299 5.169432,-2.31253 5.890154,-4.26839 1.076085,-2.920213 -1.183346,-4.337733 -6.182452,-3.878723 -4.603837,0.42271 -10.310466,1.912573 -17.989087,4.696493 -3.337364,1.20998 -3.936087,1.27431 -4.341286,0.46641 -0.194281,-0.38736 -0.208399,-1.39928 -0.02789,-1.99906 0.542351,-1.802103 3.104677,-3.665313 7.441571,-5.411183 5.720588,-2.302891 12.959818,-3.432291 17.588338,-2.743978 0.900565,0.133927 1.376235,0.09805 1.504913,-0.113511 0.242152,-0.398119 -0.686274,-0.753639 -2.484517,-0.951394 -1.045665,-0.114993 -4.251664,-0.112689 -5.610458,0.004 -3.925025,0.337163 -8.793091,1.5328 -13.046538,3.204334 -1.552405,0.610068 -2.267257,0.750485 -2.462352,0.483677 -0.07009,-0.09585 -0.12024,-0.392854 -0.12024,-0.712052 0,-0.801712 0.347969,-1.443038 1.25114,-2.305923 2.249919,-2.149558 6.811052,-4.106415 11.587136,-4.971213 0.928211,-0.16807 1.402996,-0.198202 3.05802,-0.194078 1.448231,0.0036 2.110176,0.04092 2.538063,0.143072 0.656998,0.156844 0.918223,0.09032 0.873689,-0.222487 -0.03662,-0.257266 -0.657056,-0.559056 -1.408018,-0.684888 -0.970211,-0.162569 -3.330366,-0.209791 -4.67538,-0.09355 -0.685723,0.05926 -1.960108,0.244985 -2.831963,0.412711 -0.871857,0.167726 -1.601657,0.304957 -1.621782,0.304957 -0.121803,0 -0.399748,-0.425539 -0.399748,-0.612021 0,-0.533016 1.423009,-1.466007 3.205977,-2.10199 4.069432,-1.451561 8.736415,-1.569485 13.58087,-0.343156 2.055825,0.520414 3.11427,0.957089 5.20971,2.149339 2.42212,1.378121 3.8785,2.482514 5.61774,4.259992 3.32258,3.395619 5.42377,7.730389 5.99421,12.366082 0.1641,1.33359 0.25884,3.26084 0.16706,3.39835 -0.0501,0.0751 -0.20291,0.0456 -0.55844,-0.10774 -0.58599,-0.25276 -1.47901,-0.28712 -2.24909,-0.0866 -0.27816,0.0725 -1.53891,0.52869 -2.80167,1.01386 -2.71888,1.04462 -6.74592,2.44609 -8.307129,2.89101 -1.634127,0.4657 -4.86057,1.25988 -6.189313,1.52349 -2.060979,0.40888 -2.909162,0.51031 -4.586327,0.54845 -1.378045,0.0313 -1.742233,0.0118 -2.226622,-0.11952 z"
       id="path2" />
  </g>
</svg>
